<?xml version="1.0" encoding="UTF-8"?>
<!DOCTYPE svg PUBLIC "-//W3C//DTD SVG 1.1//EN" "http://www.w3.org/Graphics/SVG/1.1/DTD/svg11.dtd">
<!-- Creator: CorelDRAW 2019 (64-Bit) -->
<svg xmlns="http://www.w3.org/2000/svg" xml:space="preserve" width="84.6666mm" height="84.6666mm" version="1.1" style="shape-rendering:geometricPrecision; text-rendering:geometricPrecision; image-rendering:optimizeQuality; fill-rule:evenodd; clip-rule:evenodd"
viewBox="0 0 8466660 8466660"
 xmlns:xlink="http://www.w3.org/1999/xlink">
 <defs>
  <style type="text/css">
   <![CDATA[
    .str2 {stroke:#2B2A29;stroke-width:20000;stroke-miterlimit:22.9256}
    .str1 {stroke:black;stroke-width:20000;stroke-miterlimit:22.9256}
    .str3 {stroke:red;stroke-width:20000;stroke-miterlimit:22.9256}
    .str0 {stroke:white;stroke-width:20000;stroke-miterlimit:22.9256}
    .fil7 {fill:none}
    .fil5 {fill:#7688A1}
    .fil1 {fill:black}
    .fil4 {fill:#C27E85}
    .fil2 {fill:#F1384C}
    .fil3 {fill:#FEFEFE}
    .fil6 {fill:red}
    .fil0 {fill:white}
   ]]>
  </style>
 </defs>
 <g id="Слой_x0020_1">
  <metadata id="CorelCorpID_0Corel-Layer"/>
  <path class="fil0 str0" d="M4160410 2867150c2110360,0 4429680,1187720 3821150,2593780 -608530,1406060 -1710790,2593790 -3821150,2593790 -2110370,0 -3278750,-1108380 -3821150,-2593790 -542400,-1485410 1710780,-2593780 3821150,-2593780z"/>
  <rect class="fil1 str1" x="461592" y="266389" width="7425298" height="7449930" rx="3561521" ry="3724969"/>
  <g id="_2329342024000">
   <path class="fil2" d="M7397510 3988810c-13420,15010 -450,820 -17560,16240 -28560,25760 -35000,30060 -52910,69190 -47420,103580 -42650,292670 -47950,408540 -7800,170540 -189530,783710 -266460,939020 -93060,187910 -267240,322500 -401390,515140l-129840 171920c-57010,81010 -70440,100420 -147780,155250 -96400,68350 -147460,160810 -333120,270430 -141490,83550 -210090,145860 -379770,224490 -77830,36070 -132160,69750 -149280,162100 46740,48610 148960,85730 245250,73210 115370,-15000 348840,-157970 434970,-227960 38240,-31060 57500,-48030 97810,-73520 34210,-21640 65080,-46340 96480,-74520l174760 -157490c66670,-62700 55260,-14790 168580,-164000l203610 -300030c25300,-34560 49520,-59160 73730,-97310 38320,-60390 81740,-130920 118310,-214300 35790,-81560 87380,-128950 126310,-206230 71310,-141580 318760,-821760 356320,-984090 18540,-80120 29860,-417020 -3160,-465700 -22080,-32580 -62170,-51620 -122410,-53160 35330,-34010 123590,-80000 164360,-176900 46150,-109690 -57830,-464350 -74780,-591660 -37440,-280990 -121390,-390380 -255720,-612470 -22250,-36770 -50460,-74460 -66310,-115020 -59380,-151940 84940,-208520 -249680,-445670 -176320,-124960 -231040,186670 -73790,376480 126280,152460 104170,264430 144330,369060 18490,48160 41500,76200 61720,119690 53280,114600 38160,160140 65780,277070 54790,232120 87790,172290 136120,558250 5990,47900 17680,95820 31000,140430 18950,63440 30000,80010 72470,113520z"/>
   <path class="fil3" d="M3731550 3512930l488540 5310 2560 1215970 279510 2520c10,-304210 -11420,-954200 1960,-1218800l489120 -250 140 -135860c2380,1680 5320,1900 6250,5570l502990 668810c58010,67340 39480,100360 39460,204570 -40,157810 0,315630 0,473440l274530 2520c40,-168720 320,-337470 30,-506190 -220,-143700 -9980,-101180 54130,-192440 38080,-54230 59690,-92180 109740,-152260l420200 -599470c-441140,-7790 -272170,-65510 -514660,273420 -69400,97020 -131960,180630 -197080,277890 -83050,-103950 -171330,-247370 -250830,-351820 -26310,-34560 -149360,-199000 -170480,-204690l-1536110 210 0 231550z"/>
   <path class="fil2" d="M3236560 7035210c-102440,-10870 -453850,-183570 -541420,-232390 -118180,-65900 -314810,-148540 -352880,-170890 -3410,-2000 -336100,-249600 -313850,-74650 25330,199040 305600,302030 401150,380500 264940,217610 286510,150320 530380,255190 61580,26470 113210,59340 173460,88200 244230,116990 630500,108820 898270,138500 74760,8280 171690,3070 248890,3070 434940,0 474580,-34880 797070,-239680 77890,-49460 34520,-125310 -38030,-145260 -211850,-58260 -431050,94020 -632660,119390 -218770,27540 -759220,-9530 -964490,-63940 -89290,-23690 -94650,-46240 -205890,-58040z"/>
   <path class="fil3" d="M2067060 4525990c81220,113990 28860,43780 97890,107960 14340,13340 22140,24630 28960,32280 322090,140370 495690,116980 861500,49640l-58720 -248760c-133080,49330 -420220,65020 -558190,14100 -168090,-62040 -185790,-260060 -189100,-472260 -3080,-197690 18240,-417520 173000,-478560 158270,-62440 414340,-36960 571820,10250l62100 -239730c-105270,-47150 -432030,-63120 -560030,-49450 -449880,48060 -542830,317340 -542160,747430 230,157390 26620,427310 112930,527100z"/>
   <path class="fil2" d="M4248880 600110c-72180,18930 -181730,103380 -77030,153270 105200,50120 159830,34590 269370,27720 194950,-12250 566990,128500 756950,205320 196190,79330 170030,46960 246680,75690 123790,46380 373420,207910 492440,221850 89520,10480 50290,-126670 30680,-171020 -26010,-58830 -115560,-113300 -174480,-147950 -175770,-103330 -463150,-244020 -670330,-285860 -75090,-15170 -218050,-19000 -298950,-23800 -163400,-9720 -421090,-95690 -575330,-55220z"/>
   <polygon class="fil3" points="3265710,4734210 3303500,4737240 3504980,4736730 3542840,4734800 3542800,3283700 3265760,3281440 "/>
   <path class="fil2" d="M945830 3495810c-54090,-8170 -110690,31340 -133200,56760 -34190,38620 -44350,87820 -46730,153890 -4710,130370 -11780,250240 -12120,383080 -610,238980 -54300,534380 107670,659220 48800,37620 81770,56660 116980,-2730 22820,-38470 46850,-94670 51160,-152530 7640,-102450 -46790,-224940 -63620,-332000 -27750,-176340 16640,-655460 -20140,-765690z"/>
   <path class="fil2" d="M1645420 1831360c-173730,-41880 -238420,133070 -274420,194990 -94940,163280 -106020,166150 -202160,301180 -28650,40230 -108710,203010 -40380,251390 126880,89800 283370,-353300 440550,-526070 50700,-55740 135730,-109800 76410,-221490z"/>
   <path class="fil2" d="M1310030 5588280c-84780,50130 -124810,188980 -64690,297310 38720,69780 137480,176360 262410,155260 231360,-39090 -38400,-546770 -197720,-452570z"/>
   <path class="fil2" d="M3892860 725340c-30540,-56670 -127970,-69680 -215360,-91490 -97380,-24310 -191980,3510 -217810,77750 -54530,156820 378740,66840 433170,13740z"/>
   <path class="fil2" d="M2639370 1067790c-44190,-31210 -131790,-28850 -192560,-29430 -59160,94810 -230230,185320 -50370,187720 117550,1560 251750,-38820 242930,-158290z"/>
   <path class="fil4" d="M2193910 4666230c-6820,-7650 -14620,-18940 -28960,-32280 -69030,-64180 -16670,6030 -97890,-107960 9840,25940 39100,71880 52040,83220 9240,8100 59650,47580 74810,57020z"/>
  </g>
  <path class="fil5 str2" d="M4441220 781100c194960,-12250 566990,128510 756950,205320 196190,79320 170020,46950 246670,75680 123800,46390 373430,207920 492440,221850 89530,10480 50310,-126650 30690,-171010 -26010,-58830 -115560,-113300 -174480,-147950 -175770,-103330 -463150,-244020 -670330,-285870 -75090,-15160 -218050,-18990 -298950,-23800 -163410,-9720 -421090,-95680 -575320,-55210 -72180,18930 -181740,103380 -77040,153270 105200,50120 159830,34590 269370,27720z"/>
  <path class="fil5 str2" d="M3459700 711600c-54540,156820 378740,66840 433160,13740 -30540,-56670 -127970,-69680 -215370,-91490 -97380,-24320 -191970,3510 -217790,77750z"/>
  <path class="fil5 str2" d="M2396440 1226070c117550,1560 251750,-38820 242930,-158290 -44190,-31210 -131790,-28830 -192550,-29420 -59170,94810 -230250,185320 -50380,187710z"/>
  <path class="fil5 str2" d="M1569000 2052850c50710,-55740 135740,-109800 76430,-221490 -173740,-41880 -238440,133070 -274430,194990 -94930,163280 -106020,166150 -202150,301180 -28650,40230 -108720,203010 -40380,251380 126870,89810 283360,-353290 440530,-526060z"/>
  <path class="fil5 str2" d="M965970 4261510c-27750,-176350 16640,-655470 -20140,-765700 -54090,-8170 -110690,31340 -133190,56750 -34210,38630 -44360,87830 -46740,153900 -4710,130370 -11780,250240 -12120,383080 -610,238980 -54290,534380 107680,659220 48790,37630 81760,56660 116980,-2730 22810,-38460 46840,-94670 51150,-152530 7640,-102450 -46790,-224940 -63620,-331990z"/>
  <path class="fil5 str2" d="M1507750 6040850c231350,-39090 -38400,-546770 -197710,-452570 -84780,50130 -124820,188980 -64700,297310 38710,69780 137480,176370 262410,155260z"/>
  <path class="fil5 str2" d="M3236550 7035200c-102440,-10850 -453830,-183560 -541410,-232390 -118180,-65890 -314810,-148540 -352880,-170880 -3410,-1990 -336110,-249600 -313860,-74640 25340,199030 305610,302030 401160,380500 264950,217590 286510,150310 530380,255180 61570,26460 113210,59340 173460,88200 244230,117000 630500,108810 898260,138500 74770,8280 171710,3070 248900,3070 434940,0 474580,-34880 797070,-239680 77890,-49450 34520,-125310 -38030,-145260 -211850,-58250 -431050,94020 -632660,119390 -218770,27550 -759230,-9530 -964490,-63940 -89300,-23680 -94640,-46240 -205900,-58050z"/>
  <path class="fil6 str2" d="M6481400 6108860c-57010,81010 -70440,100420 -147780,155250 -96390,68350 -147460,160810 -333120,270430 -141500,83540 -210100,145860 -379780,224480 -77810,36080 -132160,69750 -149280,162100 46740,48620 148970,85740 245260,73220 115380,-15010 348840,-157970 434980,-227960 38230,-31060 57490,-48030 97800,-73520 34210,-21640 65090,-46340 96470,-74530l174780 -157480c66660,-62700 55250,-14780 168570,-164000l203610 -300030c25310,-34560 49520,-59170 73730,-97320 38320,-60390 81750,-130910 118320,-214280 35770,-81570 87370,-128950 126290,-206240 71320,-141580 318770,-821760 356320,-984090 18560,-80120 29870,-417030 -3150,-465710 -22070,-32570 -62170,-51610 -122410,-53150 35330,-34010 123600,-80010 164370,-176900 46140,-109690 -57840,-464350 -74790,-591650 -37440,-281000 -121390,-390390 -255720,-612470 -22240,-36790 -50460,-74470 -66300,-115020 -59390,-151950 84930,-208530 -249680,-445690 -176330,-124950 -231050,186680 -73800,376500 126280,152440 104170,264420 144330,369050 18490,48150 41500,76200 61720,119700 53290,114590 38170,160130 65780,277070 54790,232110 87800,172280 136120,558250 5990,47890 17670,95810 31000,140420 18950,63430 30000,80010 72480,113510 -13430,15020 -450,830 -17560,16240 -28570,25770 -35010,30070 -52920,69200 -47420,103590 -42650,292670 -47940,408550 -7810,170530 -189540,783690 -266470,939010 -93060,187920 -267250,322500 -401380,515140l-129850 171920z"/>
  <path class="fil6 str3" d="M4441220 781100c194960,-12250 566990,128510 756950,205320 196190,79320 170020,46950 246670,75680 123800,46390 373430,207920 492440,221850 89530,10480 50310,-126650 30690,-171010 -26010,-58830 -115560,-113300 -174480,-147950 -175770,-103330 -463150,-244020 -670330,-285870 -75090,-15160 -218050,-18990 -298950,-23800 -163410,-9720 -421090,-95680 -575320,-55210 -72180,18930 -181740,103380 -77040,153270 105200,50120 159830,34590 269370,27720z"/>
  <path class="fil6 str3" d="M7092140 2899550c53290,114590 38170,160130 65780,277070 54790,232110 87800,172280 136120,558250 5990,47890 17670,95810 31000,140420 18950,63430 30000,80010 72480,113510 -13430,15020 -450,830 -17560,16240 -28570,25770 -35010,30070 -52920,69200 -47420,103590 -42650,292670 -47940,408550 -7810,170530 -189540,783690 -266470,939010 -93060,187920 -267250,322500 -401380,515140l-129850 171920c-57010,81010 -70440,100420 -147780,155250 -96390,68350 -147460,160810 -333120,270430 -141500,83540 -210100,145860 -379780,224480 -77810,36080 -132160,69750 -149280,162100 46740,48620 148970,85740 245260,73220 115380,-15010 348840,-157970 434980,-227960 38230,-31060 57490,-48030 97800,-73520 34210,-21640 65090,-46340 96470,-74530l174780 -157480c66660,-62700 55250,-14780 168570,-164000l203610 -300030c25310,-34560 49520,-59170 73730,-97320 38320,-60390 81750,-130910 118320,-214280 35770,-81570 87370,-128950 126290,-206240 71320,-141580 318770,-821760 356320,-984090 18560,-80120 29870,-417030 -3150,-465710 -22070,-32570 -62170,-51610 -122410,-53150 35330,-34010 123600,-80010 164370,-176900 46140,-109690 -57840,-464350 -74790,-591650 -37440,-281000 -121390,-390390 -255720,-612470 -22240,-36790 -50460,-74470 -66300,-115020 -59390,-151950 84930,-208530 -249680,-445690 -176330,-124950 -231050,186680 -73800,376500 126280,152440 104170,264420 144330,369050 18490,48150 41500,76200 61720,119700z"/>
  <path class="fil6 str3" d="M4406940 7157190c-218770,27550 -759230,-9530 -964490,-63940 -89300,-23680 -94640,-46240 -205900,-58050 -102440,-10850 -453830,-183560 -541410,-232390 -118180,-65890 -314810,-148540 -352880,-170880 -3410,-1990 -336110,-249600 -313860,-74640 25340,199030 305610,302030 401160,380500 264950,217590 286510,150310 530380,255180 61570,26460 113210,59340 173460,88200 244230,117000 630500,108810 898260,138500 74770,8280 171710,3070 248900,3070 434940,0 474580,-34880 797070,-239680 77890,-49450 34520,-125310 -38030,-145260 -211850,-58250 -431050,94020 -632660,119390z"/>
  <path class="fil6 str3" d="M1507750 6040850c231350,-39090 -38400,-546770 -197710,-452570 -84780,50130 -124820,188980 -64700,297310 38710,69780 137480,176370 262410,155260z"/>
  <path class="fil6 str3" d="M965970 4261510c-27750,-176350 16640,-655470 -20140,-765700 -54090,-8170 -110690,31340 -133190,56750 -34210,38630 -44360,87830 -46740,153900 -4710,130370 -11780,250240 -12120,383080 -610,238980 -54290,534380 107680,659220 48790,37630 81760,56660 116980,-2730 22810,-38460 46840,-94670 51150,-152530 7640,-102450 -46790,-224940 -63620,-331990z"/>
  <path class="fil6 str3" d="M1128470 2578910c126870,89810 283360,-353290 440530,-526060 50710,-55740 135740,-109800 76430,-221490 -173740,-41880 -238440,133070 -274430,194990 -94930,163280 -106020,166150 -202150,301180 -28650,40230 -108720,203010 -40380,251380z"/>
  <path class="fil6 str3" d="M2446820 1038360c-59170,94810 -230250,185320 -50380,187710 117550,1560 251750,-38820 242930,-158290 -44190,-31210 -131790,-28830 -192550,-29420z"/>
  <path class="fil6 str3" d="M3677490 633850c-97380,-24320 -191970,3510 -217790,77750 -54540,156820 378740,66840 433160,13740 -30540,-56670 -127970,-69680 -215370,-91490z"/>
  <polygon class="fil1 str1" points="3265770,3281440 3265710,4734200 3303500,4737240 3504990,4736730 3542830,4734800 3542800,3283690 "/>
  <g id="_2364272051072">
   <path class="fil1 str1" d="M2832490 3997290c-378930,-94890 -209850,-41650 -510330,-149540l-5500 -17990c34640,-48990 142980,-201810 57410,-248280 -44810,28160 -28550,144190 -28680,176630 -77920,-19790 -16780,158570 -10420,190810 -199820,270920 -507690,-48470 -581710,-220920 -278610,-649190 726260,-792380 1079230,-860770 312050,0 565030,252970 565030,565030 0,312050 -252980,565030 -565030,565030z"/>
  </g>
  <path class="fil7" d="M2832490 3432260c-316190,0 -1068370,-134390 -653890,445040 27240,38070 95810,71620 156370,71620"/>
  <g id="_2364272038304">
   <path class="fil1 str1" d="M2893900 3574930l930 17230c816510,501960 1802340,148180 2334890,386520l243500 180730c-550660,313030 -1553590,569610 -2163400,573210 -548480,3240 -786050,-78000 -1227620,-371440 -217120,-224150 -211430,-581860 12720,-798980 224150,-217110 581860,-211420 798980,12730z"/>
  </g>
  <path class="fil7" d="M2488050 3968050c307350,317250 1401200,389440 1861080,253690 163940,-48390 906530,-118280 1124090,-62330"/>
  <g id="_2364272087840">
   <path class="fil1 str1" d="M5478130 4238020c68690,107660 27600,86350 88700,109410 -31250,-133270 -440160,-533460 -508820,-646410l-120590 -287890 0 -30c393920,-192420 264580,-198010 755020,-102130 404110,79010 640880,201330 847480,540200 106820,293210 -44270,617490 -337470,724320 -293210,106820 -617490,-44270 -724320,-337470z"/>
  </g>
  <path class="fil7" d="M6009020 4044590c-68050,-186610 -933540,-642380 -1071600,-631470"/>
  <g id="_2364272086560">
   <path class="fil1 str1" d="M4603430 3995330c-371710,-118280 -1133900,-316880 -1386000,-642370 -11290,-14580 -22290,-12950 -40500,-16380 -18840,-8510 -24040,-5870 -30780,-21790 -139460,-329080 1495740,-440790 1551190,-445610 310980,25940 542060,299050 516120,610030 -25930,310980 -299050,542060 -610030,516120z"/>
  </g>
  <path class="fil7" d="M4650380 3432260c-198670,-16570 -1452890,-225800 -1473450,-95680"/>
  <g id="_2327961761824">
   <path class="fil1 str1" d="M3353210 4277850c-178480,-298040 -66210,-106920 -329360,-577700 361620,-502530 127960,-352310 665690,-501150 297920,92880 464140,409670 371260,707590 -92880,297920 -409670,464140 -707590,371260z"/>
  </g>
  <path class="fil7" d="M3521370 3738430c-77310,-24110 -393920,-38280 -497520,-38280"/>
  <g id="_2327961756448">
   <path class="fil1 str1" d="M3069820 4486100c-335750,169690 -134320,91340 -620040,189970 -420690,-284670 -279470,-105920 -466960,-498910 85310,-300170 397800,-474340 697970,-389030 300170,85300 474340,397800 389030,697970z"/>
  </g>
  <path class="fil7" d="M2526320 4331630c-29650,104340 -55550,283830 -76540,344440"/>
  <g id="_2327961742720">
   <path class="fil1 str1" d="M2463730 5164000c-69900,-48830 -50140,-18700 -73320,-79420 170100,-191550 195870,-47660 181410,-343830l-351670 -7270 -323910 -131710c26960,-507320 262720,-266860 271680,-528440 301190,-81680 611560,96250 693240,397430 81680,301190 -96250,611560 -397430,693240z"/>
  </g>
  <path class="fil7" d="M2315820 4618670c-95310,25820 -66470,1240 -95670,114810"/>
  <g id="_2327961732384">
   <path class="fil1 str1" d="M2787380 5495410c-482990,-502030 -286630,-208130 -567230,-895880 717570,-218900 369320,-190020 1040180,-130440 283410,130600 407290,466230 276680,749640 -130600,283410 -466230,407280 -749630,276680z"/>
  </g>
  <path class="fil7" d="M3023850 4982250c-188230,-86740 -643480,-327250 -803700,-382720"/>
  <g id="_2327961722848">
   <path class="fil1 str1" d="M1794110 4923970c-134290,-439450 -111290,-198400 -14080,-726290 479060,-216810 249730,-171790 674800,-190480 253160,182450 310480,535590 128030,788750 -182450,253160 -535600,310470 -788750,128020z"/>
  </g>
  <path class="fil7" d="M2124470 4465590c-40500,-29190 -342670,-267500 -344440,-267910"/>
  <g id="_2327961718784">
   <path class="fil1 str1" d="M3420240 4189290c205400,31080 858730,111960 1002510,185450l265910 224790 -204940 265970c-201850,178010 -715590,360640 -976030,450460 -311120,24150 -582910,-208500 -607060,-519620 -24150,-311110 208500,-582900 519610,-607050z"/>
  </g>
  <path class="fil7" d="M3463970 4752620c305450,-23710 1018410,-153090 1224690,-153090"/>
  <g id="_2327961714752">
   <path class="fil1 str1" d="M4886230 4576220c224380,-159360 452250,-240490 717420,-295760l-78700 78770c60600,-21280 124410,14720 235300,87210 39430,81840 65660,165570 129840,224610l48790 -55660c-52290,143610 -76370,167700 -219920,220110 211790,-28650 88090,102200 111620,361420 -171400,260770 -521750,333220 -782530,161820 -260770,-171390 -333220,-521750 -161820,-782520z"/>
  </g>
  <path class="fil7" d="M5358400 4886570c39050,-59430 237630,-315100 302900,-328590 5070,-24490 55000,-86280 98950,-111540"/>
  <g id="_2327952358976">
   <path class="fil1 str1" d="M5520530 3757560c224920,-245020 63940,-82640 526760,-440120 539550,256770 367950,76630 603300,440120 0,312050 -252970,565030 -565030,565030 -312050,0 -565030,-252980 -565030,-565030z"/>
  </g>
  <path class="fil7" d="M6085560 3757560c0,-54440 -38270,-246130 -38270,-440120"/>
  <g id="_2327952415840">
   <path class="fil1 str1" d="M5577940 3470520c281570,-179060 102190,-88570 565030,-210480 462840,121910 283470,31420 565030,210480 0,312060 -252970,565030 -565030,565030 -312050,0 -565030,-252970 -565030,-565030z"/>
  </g>
  <path class="fil7" d="M6142970 3470520c0,-70160 0,-140320 0,-210480"/>
  <g id="_2327952411424">
   <path class="fil1 str1" d="M5673620 3393980c218360,-301780 261590,-87690 565030,-248760 345340,-107580 312730,211280 565030,248760 0,312060 -252970,565030 -565030,565030 -312050,0 -565030,-252970 -565030,-565030z"/>
  </g>
  <path class="fil7" d="M6238650 3393980c0,-72340 31250,-201010 0,-248760"/>
  <path class="fil0 str0" d="M1866730 3223970c-591970,63240 -714270,417580 -713400,983500 320,207110 35040,562290 148600,693610 106880,149990 37990,57590 128820,142050 18870,17550 29130,32400 38110,42470 423820,184700 652250,153930 1133590,65320l-77260 -327330c-175110,64910 -552940,85560 -734490,18540 -221170,-81630 -244470,-342180 -248830,-621410 -4060,-260120 24000,-549400 227640,-629730 208260,-82160 545210,-48610 752440,13500l81710 -315450c-138520,-62040 -568490,-83060 -736930,-65070z"/>
  <path class="fil0 str0" d="M4135010 3575010l3360 1600030 367790 3330c20,-400300 -15020,-1255590 2590,-1603770l643600 -320 190 -178780c3140,2210 6990,2510 8230,7330l661860 880060c76330,88610 51950,132060 51920,269180 -40,207650 0,415330 0,622970l361240 3330c60,-222020 420,-444060 40,-666080 -290,-189090 -13130,-133130 71230,-253220 50110,-71360 78540,-121280 144400,-200350l552910 -788800c-580480,-10260 -358120,-86220 -677200,359780 -91320,127660 -173640,237680 -259340,365650 -109280,-136770 -225440,-325500 -330050,-462950 -34620,-45480 -196540,-261840 -224330,-269320l-2021280 270 0 304680 642840 6980z"/>
  <polygon class="fil0 str0" points="3243840,5175830 3243790,3266380 2879260,3263420 2879180,5175040 2928910,5179040 3194040,5178370 "/>
 </g>
</svg>
